<svg width="140" height="49" viewBox="0 0 140 49" fill="none" xmlns="http://www.w3.org/2000/svg">
<rect x="0.5" y="0.5" width="139" height="48" rx="5.5" stroke="#ABDAA9"/>
<path d="M32.375 25.3585C32.3883 24.3236 32.6636 23.3089 33.1753 22.4088C33.6869 21.5087 34.4183 20.7524 35.3013 20.2104C34.7403 19.4104 34.0003 18.7521 33.14 18.2877C32.2796 17.8233 31.3227 17.5656 30.3451 17.5351C28.2599 17.3165 26.2384 18.7809 25.1757 18.7809C24.0926 18.7809 22.4565 17.5568 20.6948 17.5929C19.5552 17.6297 18.4447 17.9606 17.4713 18.5533C16.4978 19.1461 15.6948 19.9805 15.1404 20.9752C12.7389 25.1269 14.5302 31.2285 16.8307 34.5845C17.9817 36.2278 19.3269 38.0634 21.0871 37.9983C22.8095 37.9269 23.4528 36.9016 25.5319 36.9016C27.5917 36.9016 28.1952 37.9983 29.9911 37.9569C31.8394 37.9269 33.0038 36.3063 34.1145 34.6474C34.9415 33.4765 35.5778 32.1824 36 30.813C34.9262 30.3596 34.0099 29.6005 33.3653 28.6305C32.7206 27.6606 32.3762 26.5226 32.375 25.3585Z" fill="#F9FAFB"/>
<path d="M28.9827 15.328C29.9904 14.1201 30.4869 12.5675 30.3667 11C28.8271 11.1615 27.4049 11.8962 26.3836 13.0577C25.8842 13.6252 25.5017 14.2854 25.258 15.0005C25.0143 15.7156 24.9142 16.4717 24.9633 17.2255C25.7334 17.2334 26.4952 17.0668 27.1914 16.7381C27.8877 16.4094 28.5001 15.9273 28.9827 15.328Z" fill="#F9FAFB"/>
<path d="M48.8595 18V11.493C48.8805 11.493 48.9435 11.4945 49.0485 11.4975C49.1565 11.4975 49.287 11.4975 49.44 11.4975C49.593 11.4945 49.752 11.4945 49.917 11.4975C50.082 11.4975 50.2335 11.499 50.3715 11.502C51.1695 11.514 51.816 11.6445 52.311 11.8935C52.809 12.1395 53.1735 12.498 53.4045 12.969C53.6385 13.44 53.7555 14.019 53.7555 14.706C53.7555 15.426 53.6295 16.0305 53.3775 16.5195C53.1285 17.0085 52.7475 17.3775 52.2345 17.6265C51.7245 17.8755 51.075 18 50.286 18H48.8595ZM49.7145 17.2845H50.286C50.823 17.2845 51.285 17.202 51.672 17.037C52.059 16.869 52.356 16.5975 52.563 16.2225C52.773 15.8475 52.878 15.3465 52.878 14.7195C52.878 14.0925 52.776 13.596 52.572 13.23C52.371 12.864 52.08 12.603 51.699 12.447C51.318 12.288 50.859 12.2085 50.322 12.2085H49.7145V17.2845ZM56.7917 18.09C56.3627 18.09 55.9877 17.9985 55.6667 17.8155C55.3487 17.6295 55.1012 17.358 54.9242 17.001C54.7472 16.644 54.6587 16.2075 54.6587 15.6915C54.6587 15.2055 54.7412 14.7795 54.9062 14.4135C55.0712 14.0475 55.3127 13.764 55.6307 13.563C55.9487 13.359 56.3372 13.257 56.7962 13.257C57.2252 13.257 57.5972 13.3515 57.9122 13.5405C58.2272 13.7265 58.4717 14.001 58.6457 14.364C58.8227 14.727 58.9112 15.1695 58.9112 15.6915C58.9112 16.1655 58.8302 16.5825 58.6682 16.9425C58.5062 17.3025 58.2677 17.5845 57.9527 17.7885C57.6407 17.9895 57.2537 18.09 56.7917 18.09ZM56.7962 17.433C57.0722 17.433 57.3062 17.3625 57.4982 17.2215C57.6902 17.0805 57.8357 16.878 57.9347 16.614C58.0367 16.35 58.0877 16.0365 58.0877 15.6735C58.0877 15.3405 58.0427 15.042 57.9527 14.778C57.8657 14.511 57.7277 14.2995 57.5387 14.1435C57.3497 13.9875 57.1022 13.9095 56.7962 13.9095C56.5142 13.9095 56.2757 13.98 56.0807 14.121C55.8857 14.259 55.7372 14.46 55.6352 14.724C55.5362 14.988 55.4867 15.3045 55.4867 15.6735C55.4867 16.0005 55.5302 16.2975 55.6172 16.5645C55.7072 16.8315 55.8482 17.043 56.0402 17.199C56.2352 17.355 56.4872 17.433 56.7962 17.433ZM60.9416 18L59.5016 13.347H60.2756L61.3376 16.9245H61.4096L62.4581 13.347H63.0881L64.1771 16.9155H64.2536L65.2706 13.347H66.0536L64.6406 18H63.8216L62.7641 14.5665L61.7516 18H60.9416ZM66.9785 18V13.347H67.784V14.022C67.859 13.893 67.9625 13.7715 68.0945 13.6575C68.2295 13.5435 68.3915 13.452 68.5805 13.383C68.7725 13.314 68.993 13.2795 69.242 13.2795C69.536 13.2795 69.806 13.338 70.052 13.455C70.301 13.572 70.499 13.755 70.646 14.004C70.796 14.25 70.871 14.568 70.871 14.958V18H70.0385V15.039C70.0385 14.676 69.9425 14.4075 69.7505 14.2335C69.5615 14.0565 69.3155 13.968 69.0125 13.968C68.8025 13.968 68.606 14.0025 68.423 14.0715C68.24 14.1375 68.0915 14.2395 67.9775 14.3775C67.8635 14.5125 67.8065 14.6835 67.8065 14.8905V18H66.9785ZM73.3474 18.0585C73.0954 18.0585 72.8914 18.024 72.7354 17.955C72.5824 17.886 72.4639 17.793 72.3799 17.676C72.2989 17.559 72.2434 17.4255 72.2134 17.2755C72.1864 17.1225 72.1729 16.965 72.1729 16.803V11.313H72.9919V16.722C72.9919 16.956 73.0369 17.1315 73.1269 17.2485C73.2199 17.3655 73.3489 17.43 73.5139 17.442L73.7659 17.4465V17.9865C73.6969 18.0075 73.6249 18.024 73.5499 18.036C73.4749 18.051 73.4074 18.0585 73.3474 18.0585ZM76.5408 18.09C76.1118 18.09 75.7368 17.9985 75.4158 17.8155C75.0978 17.6295 74.8503 17.358 74.6733 17.001C74.4963 16.644 74.4078 16.2075 74.4078 15.6915C74.4078 15.2055 74.4903 14.7795 74.6553 14.4135C74.8203 14.0475 75.0618 13.764 75.3798 13.563C75.6978 13.359 76.0863 13.257 76.5453 13.257C76.9743 13.257 77.3463 13.3515 77.6613 13.5405C77.9763 13.7265 78.2208 14.001 78.3948 14.364C78.5718 14.727 78.6603 15.1695 78.6603 15.6915C78.6603 16.1655 78.5793 16.5825 78.4173 16.9425C78.2553 17.3025 78.0168 17.5845 77.7018 17.7885C77.3898 17.9895 77.0028 18.09 76.5408 18.09ZM76.5453 17.433C76.8213 17.433 77.0553 17.3625 77.2473 17.2215C77.4393 17.0805 77.5848 16.878 77.6838 16.614C77.7858 16.35 77.8368 16.0365 77.8368 15.6735C77.8368 15.3405 77.7918 15.042 77.7018 14.778C77.6148 14.511 77.4768 14.2995 77.2878 14.1435C77.0988 13.9875 76.8513 13.9095 76.5453 13.9095C76.2633 13.9095 76.0248 13.98 75.8298 14.121C75.6348 14.259 75.4863 14.46 75.3843 14.724C75.2853 14.988 75.2358 15.3045 75.2358 15.6735C75.2358 16.0005 75.2793 16.2975 75.3663 16.5645C75.4563 16.8315 75.5973 17.043 75.7893 17.199C75.9843 17.355 76.2363 17.433 76.5453 17.433ZM81.0189 18.09C80.7159 18.09 80.4489 18.0375 80.2179 17.9325C79.9899 17.8245 79.8099 17.67 79.6779 17.469C79.5489 17.268 79.4844 17.025 79.4844 16.74C79.4844 16.224 79.6644 15.84 80.0244 15.588C80.3844 15.336 80.9619 15.201 81.7569 15.183L82.5849 15.1605V14.796C82.5849 14.511 82.4994 14.286 82.3284 14.121C82.1574 13.953 81.8934 13.869 81.5364 13.869C81.2694 13.872 81.0339 13.935 80.8299 14.058C80.6259 14.181 80.4954 14.382 80.4384 14.661H79.7049C79.7229 14.358 79.8069 14.103 79.9569 13.896C80.1099 13.686 80.3244 13.527 80.6004 13.419C80.8764 13.311 81.2019 13.257 81.5769 13.257C81.9819 13.257 82.3179 13.314 82.5849 13.428C82.8549 13.542 83.0559 13.71 83.1879 13.932C83.3229 14.154 83.3904 14.427 83.3904 14.751V18H82.6794L82.6164 17.127C82.4394 17.49 82.2114 17.742 81.9324 17.883C81.6564 18.021 81.3519 18.09 81.0189 18.09ZM81.2664 17.4915C81.4254 17.4915 81.5814 17.463 81.7344 17.406C81.8904 17.349 82.0314 17.2725 82.1574 17.1765C82.2864 17.0775 82.3899 16.968 82.4679 16.848C82.5459 16.725 82.5849 16.599 82.5849 16.47V15.6735L81.8964 15.687C81.5394 15.693 81.2424 15.729 81.0054 15.795C80.7684 15.861 80.5899 15.9645 80.4699 16.1055C80.3499 16.2465 80.2899 16.431 80.2899 16.659C80.2899 16.92 80.3814 17.124 80.5644 17.271C80.7474 17.418 80.9814 17.4915 81.2664 17.4915ZM86.385 18.09C85.779 18.09 85.299 17.883 84.945 17.469C84.594 17.055 84.4185 16.4505 84.4185 15.6555C84.4185 15.1725 84.489 14.751 84.63 14.391C84.771 14.031 84.9825 13.752 85.2645 13.554C85.5465 13.356 85.8975 13.257 86.3175 13.257C86.5425 13.257 86.7405 13.2855 86.9115 13.3425C87.0825 13.3995 87.231 13.4715 87.357 13.5585C87.483 13.6455 87.585 13.7355 87.663 13.8285C87.744 13.9215 87.804 14.007 87.843 14.085V11.313H88.6845V18H88.0455L87.9555 17.046C87.9255 17.136 87.8775 17.241 87.8115 17.361C87.7455 17.478 87.6525 17.5935 87.5325 17.7075C87.4155 17.8185 87.2625 17.91 87.0735 17.982C86.8845 18.054 86.655 18.09 86.385 18.09ZM86.5335 17.451C87.0015 17.451 87.336 17.3085 87.537 17.0235C87.741 16.7355 87.843 16.266 87.843 15.615C87.84 15.252 87.795 14.943 87.708 14.688C87.621 14.433 87.483 14.2395 87.294 14.1075C87.108 13.9725 86.859 13.905 86.547 13.905C86.166 13.905 85.8555 14.0415 85.6155 14.3145C85.3755 14.5875 85.2555 15.021 85.2555 15.615C85.2555 16.197 85.3635 16.6485 85.5795 16.9695C85.7955 17.2905 86.1135 17.451 86.5335 17.451ZM93.9958 18.09C93.5668 18.09 93.1918 17.9985 92.8708 17.8155C92.5528 17.6295 92.3053 17.358 92.1283 17.001C91.9513 16.644 91.8628 16.2075 91.8628 15.6915C91.8628 15.2055 91.9453 14.7795 92.1103 14.4135C92.2753 14.0475 92.5168 13.764 92.8348 13.563C93.1528 13.359 93.5413 13.257 94.0003 13.257C94.4293 13.257 94.8013 13.3515 95.1163 13.5405C95.4313 13.7265 95.6758 14.001 95.8498 14.364C96.0268 14.727 96.1153 15.1695 96.1153 15.6915C96.1153 16.1655 96.0343 16.5825 95.8723 16.9425C95.7103 17.3025 95.4718 17.5845 95.1568 17.7885C94.8448 17.9895 94.4578 18.09 93.9958 18.09ZM94.0003 17.433C94.2763 17.433 94.5103 17.3625 94.7023 17.2215C94.8943 17.0805 95.0398 16.878 95.1388 16.614C95.2408 16.35 95.2918 16.0365 95.2918 15.6735C95.2918 15.3405 95.2468 15.042 95.1568 14.778C95.0698 14.511 94.9318 14.2995 94.7428 14.1435C94.5538 13.9875 94.3063 13.9095 94.0003 13.9095C93.7183 13.9095 93.4798 13.98 93.2848 14.121C93.0898 14.259 92.9413 14.46 92.8393 14.724C92.7403 14.988 92.6908 15.3045 92.6908 15.6735C92.6908 16.0005 92.7343 16.2975 92.8213 16.5645C92.9113 16.8315 93.0523 17.043 93.2443 17.199C93.4393 17.355 93.6913 17.433 94.0003 17.433ZM97.2217 18V13.347H98.0272V14.022C98.1022 13.893 98.2057 13.7715 98.3377 13.6575C98.4727 13.5435 98.6347 13.452 98.8237 13.383C99.0157 13.314 99.2362 13.2795 99.4852 13.2795C99.7792 13.2795 100.049 13.338 100.295 13.455C100.544 13.572 100.742 13.755 100.889 14.004C101.039 14.25 101.114 14.568 101.114 14.958V18H100.282V15.039C100.282 14.676 100.186 14.4075 99.9937 14.2335C99.8047 14.0565 99.5587 13.968 99.2557 13.968C99.0457 13.968 98.8492 14.0025 98.6662 14.0715C98.4832 14.1375 98.3347 14.2395 98.2207 14.3775C98.1067 14.5125 98.0497 14.6835 98.0497 14.8905V18H97.2217ZM106.31 18.0225C105.989 18.0225 105.74 17.979 105.563 17.892C105.386 17.805 105.262 17.676 105.19 17.505C105.121 17.334 105.086 17.124 105.086 16.875V13.9545H104.33V13.347H105.109L105.311 11.9925H105.923V13.3425H106.972V13.9545H105.923V16.848C105.923 17.013 105.94 17.1345 105.973 17.2125C106.009 17.2875 106.067 17.3355 106.148 17.3565C106.229 17.3775 106.343 17.388 106.49 17.388H106.999V17.946C106.942 17.967 106.855 17.985 106.738 18C106.624 18.015 106.481 18.0225 106.31 18.0225ZM108.103 18V11.313H108.913V14.031C108.991 13.902 109.096 13.782 109.228 13.671C109.36 13.557 109.52 13.4655 109.709 13.3965C109.898 13.3245 110.117 13.2885 110.366 13.2885C110.669 13.2885 110.944 13.3455 111.19 13.4595C111.436 13.5705 111.631 13.7295 111.775 13.9365C111.919 14.1435 111.991 14.3895 111.991 14.6745V18H111.158V14.841C111.158 14.562 111.062 14.3475 110.87 14.1975C110.681 14.0445 110.434 13.968 110.128 13.968C109.921 13.968 109.726 14.0025 109.543 14.0715C109.36 14.1375 109.211 14.2395 109.097 14.3775C108.986 14.5125 108.931 14.685 108.931 14.895V18H108.103ZM115.255 18.09C114.823 18.09 114.442 17.9955 114.112 17.8065C113.782 17.6175 113.524 17.346 113.338 16.992C113.152 16.638 113.059 16.2135 113.059 15.7185C113.059 15.2295 113.143 14.8005 113.311 14.4315C113.479 14.0625 113.722 13.7745 114.04 13.5675C114.361 13.3605 114.746 13.257 115.196 13.257C115.634 13.257 116.005 13.3515 116.308 13.5405C116.611 13.7295 116.84 13.9965 116.996 14.3415C117.155 14.6835 117.235 15.09 117.235 15.561V15.867H113.9C113.9 16.161 113.948 16.428 114.044 16.668C114.143 16.905 114.292 17.094 114.49 17.235C114.688 17.376 114.938 17.4465 115.241 17.4465C115.538 17.4465 115.793 17.3775 116.006 17.2395C116.222 17.1015 116.36 16.902 116.42 16.641H117.203C117.149 16.956 117.023 17.2215 116.825 17.4375C116.63 17.6535 116.395 17.817 116.119 17.928C115.846 18.036 115.558 18.09 115.255 18.09ZM113.905 15.3045H116.434C116.434 15.0375 116.389 14.7975 116.299 14.5845C116.209 14.3685 116.071 14.199 115.885 14.076C115.702 13.95 115.471 13.887 115.192 13.887C114.901 13.887 114.659 13.9575 114.467 14.0985C114.275 14.2365 114.133 14.415 114.04 14.634C113.947 14.85 113.902 15.0735 113.905 15.3045Z" fill="#F9FAFB"/>
<path d="M48.612 37L53.283 23.986H55.659L60.33 37H58.134L56.973 33.733H51.987L50.817 37H48.612ZM52.509 31.789H56.424L54.471 26.11L52.509 31.789ZM61.7095 39.898V27.694H63.8965L63.9145 29.161C64.0345 28.957 64.1875 28.756 64.3735 28.558C64.5655 28.36 64.7845 28.183 65.0305 28.027C65.2825 27.871 65.5615 27.748 65.8675 27.658C66.1735 27.562 66.5095 27.514 66.8755 27.514C67.5895 27.514 68.2225 27.685 68.7745 28.027C69.3265 28.363 69.7585 28.882 70.0705 29.584C70.3885 30.286 70.5475 31.174 70.5475 32.248C70.5475 33.346 70.3855 34.261 70.0615 34.993C69.7375 35.725 69.2845 36.274 68.7025 36.64C68.1205 37 67.4455 37.18 66.6775 37.18C66.3235 37.18 65.9995 37.132 65.7055 37.036C65.4175 36.94 65.1595 36.808 64.9315 36.64C64.7035 36.472 64.5025 36.289 64.3285 36.091C64.1605 35.893 64.0195 35.686 63.9055 35.47V39.898H61.7095ZM66.1915 35.542C66.8515 35.542 67.3975 35.281 67.8295 34.759C68.2615 34.231 68.4775 33.406 68.4775 32.284C68.4775 31.312 68.2735 30.547 67.8655 29.989C67.4635 29.425 66.9055 29.143 66.1915 29.143C65.4235 29.143 64.8475 29.44 64.4635 30.034C64.0795 30.622 63.8875 31.372 63.8875 32.284C63.8875 32.872 63.9715 33.415 64.1395 33.913C64.3135 34.405 64.5685 34.801 64.9045 35.101C65.2465 35.395 65.6755 35.542 66.1915 35.542ZM72.0676 39.898V27.694H74.2546L74.2726 29.161C74.3926 28.957 74.5456 28.756 74.7316 28.558C74.9236 28.36 75.1426 28.183 75.3886 28.027C75.6406 27.871 75.9196 27.748 76.2256 27.658C76.5316 27.562 76.8676 27.514 77.2336 27.514C77.9476 27.514 78.5806 27.685 79.1326 28.027C79.6846 28.363 80.1166 28.882 80.4286 29.584C80.7466 30.286 80.9056 31.174 80.9056 32.248C80.9056 33.346 80.7436 34.261 80.4196 34.993C80.0956 35.725 79.6426 36.274 79.0606 36.64C78.4786 37 77.8036 37.18 77.0356 37.18C76.6816 37.18 76.3576 37.132 76.0636 37.036C75.7756 36.94 75.5176 36.808 75.2896 36.64C75.0616 36.472 74.8606 36.289 74.6866 36.091C74.5186 35.893 74.3776 35.686 74.2636 35.47V39.898H72.0676ZM76.5496 35.542C77.2096 35.542 77.7556 35.281 78.1876 34.759C78.6196 34.231 78.8356 33.406 78.8356 32.284C78.8356 31.312 78.6316 30.547 78.2236 29.989C77.8216 29.425 77.2636 29.143 76.5496 29.143C75.7816 29.143 75.2056 29.44 74.8216 30.034C74.4376 30.622 74.2456 31.372 74.2456 32.284C74.2456 32.872 74.3296 33.415 74.4976 33.913C74.6716 34.405 74.9266 34.801 75.2626 35.101C75.6046 35.395 76.0336 35.542 76.5496 35.542ZM91.073 37.18C90.425 37.18 89.804 37.102 89.21 36.946C88.616 36.784 88.073 36.547 87.581 36.235C87.095 35.917 86.693 35.524 86.375 35.056C86.057 34.582 85.862 34.03 85.79 33.4H88.058C88.154 33.838 88.343 34.207 88.625 34.507C88.913 34.807 89.276 35.035 89.714 35.191C90.152 35.347 90.641 35.425 91.181 35.425C91.661 35.425 92.108 35.353 92.522 35.209C92.936 35.065 93.272 34.852 93.53 34.57C93.788 34.282 93.917 33.928 93.917 33.508C93.917 33.034 93.749 32.665 93.413 32.401C93.083 32.131 92.609 31.918 91.991 31.762L89.444 31.159C88.784 31.009 88.208 30.79 87.716 30.502C87.23 30.214 86.852 29.836 86.582 29.368C86.312 28.894 86.177 28.315 86.177 27.631C86.177 26.851 86.39 26.176 86.816 25.606C87.248 25.036 87.833 24.598 88.571 24.292C89.309 23.98 90.14 23.824 91.064 23.824C92.12 23.824 93.011 24.001 93.737 24.355C94.463 24.703 95.015 25.171 95.393 25.759C95.771 26.347 95.963 26.992 95.969 27.694H93.755C93.707 27.172 93.554 26.761 93.296 26.461C93.038 26.155 92.711 25.933 92.315 25.795C91.919 25.657 91.481 25.588 91.001 25.588C90.149 25.588 89.516 25.771 89.102 26.137C88.688 26.503 88.481 26.932 88.481 27.424C88.481 27.886 88.634 28.252 88.94 28.522C89.246 28.792 89.714 29.002 90.344 29.152L92.765 29.719C93.575 29.887 94.226 30.145 94.718 30.493C95.21 30.841 95.567 31.255 95.789 31.735C96.017 32.209 96.131 32.734 96.131 33.31C96.131 34.066 95.915 34.735 95.483 35.317C95.057 35.899 94.466 36.355 93.71 36.685C92.954 37.015 92.075 37.18 91.073 37.18ZM101.287 37.072C100.549 37.072 99.9762 36.976 99.5682 36.784C99.1662 36.586 98.8872 36.307 98.7312 35.947C98.5752 35.587 98.4972 35.158 98.4972 34.66V29.242H96.9852V27.694H98.5602L99.1092 24.931H100.684V27.685H102.763V29.242H100.684L100.693 34.579C100.693 34.855 100.723 35.059 100.783 35.191C100.849 35.317 100.951 35.401 101.089 35.443C101.233 35.479 101.422 35.497 101.656 35.497H102.808V36.883C102.682 36.931 102.496 36.973 102.25 37.009C102.01 37.051 101.689 37.072 101.287 37.072ZM108.002 37.18C107.114 37.18 106.34 36.991 105.68 36.613C105.02 36.229 104.507 35.68 104.141 34.966C103.781 34.252 103.601 33.394 103.601 32.392C103.601 31.42 103.778 30.568 104.132 29.836C104.486 29.104 104.99 28.534 105.644 28.126C106.304 27.718 107.093 27.514 108.011 27.514C108.899 27.514 109.67 27.709 110.324 28.099C110.978 28.489 111.482 29.047 111.836 29.773C112.196 30.499 112.376 31.372 112.376 32.392C112.376 33.334 112.205 34.165 111.863 34.885C111.527 35.599 111.032 36.16 110.378 36.568C109.73 36.976 108.938 37.18 108.002 37.18ZM108.011 35.515C108.515 35.515 108.929 35.377 109.253 35.101C109.583 34.825 109.829 34.447 109.991 33.967C110.153 33.487 110.234 32.941 110.234 32.329C110.234 31.759 110.162 31.234 110.018 30.754C109.874 30.274 109.637 29.89 109.307 29.602C108.983 29.308 108.551 29.161 108.011 29.161C107.501 29.161 107.078 29.296 106.742 29.566C106.412 29.83 106.166 30.202 106.004 30.682C105.842 31.156 105.761 31.705 105.761 32.329C105.761 32.893 105.833 33.418 105.977 33.904C106.121 34.384 106.358 34.774 106.688 35.074C107.018 35.368 107.459 35.515 108.011 35.515ZM113.909 37V27.694H116.006V29.71C116.156 29.248 116.369 28.855 116.645 28.531C116.927 28.201 117.257 27.949 117.635 27.775C118.013 27.601 118.424 27.514 118.868 27.514C118.976 27.514 119.081 27.52 119.183 27.532C119.285 27.544 119.36 27.565 119.408 27.595V29.692C119.342 29.662 119.255 29.641 119.147 29.629C119.045 29.617 118.955 29.611 118.877 29.611C118.427 29.575 118.028 29.593 117.68 29.665C117.338 29.737 117.047 29.86 116.807 30.034C116.573 30.202 116.396 30.418 116.276 30.682C116.156 30.94 116.096 31.243 116.096 31.591V37H113.909ZM124.724 37.18C123.83 37.18 123.041 36.991 122.357 36.613C121.679 36.229 121.148 35.683 120.764 34.975C120.386 34.267 120.197 33.424 120.197 32.446C120.197 31.492 120.368 30.646 120.71 29.908C121.058 29.164 121.559 28.579 122.213 28.153C122.873 27.727 123.668 27.514 124.598 27.514C125.516 27.514 126.287 27.709 126.911 28.099C127.535 28.489 128.009 29.035 128.333 29.737C128.657 30.433 128.819 31.249 128.819 32.185V32.851H122.384C122.378 33.379 122.462 33.847 122.636 34.255C122.81 34.663 123.068 34.984 123.41 35.218C123.752 35.446 124.175 35.56 124.679 35.56C125.195 35.56 125.642 35.446 126.02 35.218C126.404 34.984 126.659 34.63 126.785 34.156H128.783C128.675 34.804 128.417 35.353 128.009 35.803C127.607 36.253 127.115 36.595 126.533 36.829C125.957 37.063 125.354 37.18 124.724 37.18ZM122.375 31.492H126.749C126.749 31.042 126.668 30.637 126.506 30.277C126.35 29.911 126.113 29.623 125.795 29.413C125.477 29.197 125.075 29.089 124.589 29.089C124.109 29.089 123.704 29.206 123.374 29.44C123.044 29.674 122.795 29.977 122.627 30.349C122.459 30.715 122.375 31.096 122.375 31.492Z" fill="#F9FAFB"/>
</svg>
