<svg width="1207" height="378" viewBox="0 0 1207 378" fill="none" xmlns="http://www.w3.org/2000/svg">
<g opacity="0.2">
<mask id="mask0_17532_2465" style="mask-type:alpha" maskUnits="userSpaceOnUse" x="0" y="0" width="1207" height="378">
<rect width="1206.19" height="377.94" transform="matrix(1 0 0 -1 0 377.94)" fill="#D9D9D9"/>
</mask>
<g mask="url(#mask0_17532_2465)">
<path d="M676.938 283.996C615.921 268.271 611.529 349.755 616.961 392.462L839.983 541.832C901.957 474.605 1018.45 323.711 988.611 257.961C951.317 175.773 914.959 256.29 847.17 296.609C779.38 336.928 753.209 303.653 676.938 283.996Z" fill="#39A432"/>
<path d="M1105.39 252.933C1043.22 270.136 1084.33 344.161 1112.65 379.024L1390.61 397.108C1407.85 306.334 1426.73 114.099 1364.29 71.3558C1286.25 17.9274 1298.79 107.372 1261.6 177.399C1224.42 247.426 1183.11 231.43 1105.39 252.933Z" fill="#39A432" stroke="black"/>
<path d="M1122.81 121.1C1181.85 168.229 1223.53 65.3161 1237 7.96816L1062.86 -282.538C965.196 -223.35 770.511 -80.5338 773.068 17.2212C776.264 139.415 852.171 51.836 943.946 29.8356C1035.72 7.83531 1049.02 62.1874 1122.81 121.1Z" fill="#39A432"/>
</g>
</g>
</svg>
