<svg width="161" height="49" viewBox="0 0 161 49" fill="none" xmlns="http://www.w3.org/2000/svg">
<rect x="0.5" y="0.5" width="160" height="48" rx="5.5" stroke="#ABDAA9"/>
<path d="M24.7381 23.9168L14.0977 35.3398C14.0987 35.3418 14.0987 35.3448 14.0997 35.3468C14.4265 36.5872 15.5458 37.5 16.875 37.5C17.4066 37.5 17.9053 37.3544 18.3331 37.0997L18.367 37.0795L30.3437 30.0892L24.7381 23.9168Z" fill="#EA4335"/>
<path d="M35.5033 21.9717L35.4933 21.9646L30.3225 18.933L24.4971 24.1764L30.3435 30.088L35.4863 27.0867C36.3878 26.5934 37.0004 25.6321 37.0004 24.5241C37.0004 23.4223 36.3968 22.466 35.5033 21.9717Z" fill="#FBBC04"/>
<path d="M14.0979 13.6594C14.034 13.898 14 14.1487 14 14.4074V34.5927C14 34.8515 14.034 35.1022 14.0989 35.3397L25.1042 24.2089L14.0979 13.6594Z" fill="#4285F4"/>
<path d="M24.8171 24.4999L30.3237 18.9309L18.361 11.9154C17.9263 11.6516 17.4186 11.5 16.876 11.5C15.5468 11.5 14.4255 12.4148 14.0987 13.6562C14.0987 13.6572 14.0977 13.6582 14.0977 13.6592L24.8171 24.4999Z" fill="#34A853"/>
<path d="M49.8595 18V11.493C49.8805 11.493 49.9435 11.4945 50.0485 11.4975C50.1565 11.4975 50.287 11.4975 50.44 11.4975C50.593 11.4945 50.752 11.4945 50.917 11.4975C51.082 11.4975 51.2335 11.499 51.3715 11.502C52.1695 11.514 52.816 11.6445 53.311 11.8935C53.809 12.1395 54.1735 12.498 54.4045 12.969C54.6385 13.44 54.7555 14.019 54.7555 14.706C54.7555 15.426 54.6295 16.0305 54.3775 16.5195C54.1285 17.0085 53.7475 17.3775 53.2345 17.6265C52.7245 17.8755 52.075 18 51.286 18H49.8595ZM50.7145 17.2845H51.286C51.823 17.2845 52.285 17.202 52.672 17.037C53.059 16.869 53.356 16.5975 53.563 16.2225C53.773 15.8475 53.878 15.3465 53.878 14.7195C53.878 14.0925 53.776 13.596 53.572 13.23C53.371 12.864 53.08 12.603 52.699 12.447C52.318 12.288 51.859 12.2085 51.322 12.2085H50.7145V17.2845ZM57.7917 18.09C57.3627 18.09 56.9877 17.9985 56.6667 17.8155C56.3487 17.6295 56.1012 17.358 55.9242 17.001C55.7472 16.644 55.6587 16.2075 55.6587 15.6915C55.6587 15.2055 55.7412 14.7795 55.9062 14.4135C56.0712 14.0475 56.3127 13.764 56.6307 13.563C56.9487 13.359 57.3372 13.257 57.7962 13.257C58.2252 13.257 58.5972 13.3515 58.9122 13.5405C59.2272 13.7265 59.4717 14.001 59.6457 14.364C59.8227 14.727 59.9112 15.1695 59.9112 15.6915C59.9112 16.1655 59.8302 16.5825 59.6682 16.9425C59.5062 17.3025 59.2677 17.5845 58.9527 17.7885C58.6407 17.9895 58.2537 18.09 57.7917 18.09ZM57.7962 17.433C58.0722 17.433 58.3062 17.3625 58.4982 17.2215C58.6902 17.0805 58.8357 16.878 58.9347 16.614C59.0367 16.35 59.0877 16.0365 59.0877 15.6735C59.0877 15.3405 59.0427 15.042 58.9527 14.778C58.8657 14.511 58.7277 14.2995 58.5387 14.1435C58.3497 13.9875 58.1022 13.9095 57.7962 13.9095C57.5142 13.9095 57.2757 13.98 57.0807 14.121C56.8857 14.259 56.7372 14.46 56.6352 14.724C56.5362 14.988 56.4867 15.3045 56.4867 15.6735C56.4867 16.0005 56.5302 16.2975 56.6172 16.5645C56.7072 16.8315 56.8482 17.043 57.0402 17.199C57.2352 17.355 57.4872 17.433 57.7962 17.433ZM61.9416 18L60.5016 13.347H61.2756L62.3376 16.9245H62.4096L63.4581 13.347H64.0881L65.1771 16.9155H65.2536L66.2706 13.347H67.0536L65.6406 18H64.8216L63.7641 14.5665L62.7516 18H61.9416ZM67.9785 18V13.347H68.784V14.022C68.859 13.893 68.9625 13.7715 69.0945 13.6575C69.2295 13.5435 69.3915 13.452 69.5805 13.383C69.7725 13.314 69.993 13.2795 70.242 13.2795C70.536 13.2795 70.806 13.338 71.052 13.455C71.301 13.572 71.499 13.755 71.646 14.004C71.796 14.25 71.871 14.568 71.871 14.958V18H71.0385V15.039C71.0385 14.676 70.9425 14.4075 70.7505 14.2335C70.5615 14.0565 70.3155 13.968 70.0125 13.968C69.8025 13.968 69.606 14.0025 69.423 14.0715C69.24 14.1375 69.0915 14.2395 68.9775 14.3775C68.8635 14.5125 68.8065 14.6835 68.8065 14.8905V18H67.9785ZM74.3474 18.0585C74.0954 18.0585 73.8914 18.024 73.7354 17.955C73.5824 17.886 73.4639 17.793 73.3799 17.676C73.2989 17.559 73.2434 17.4255 73.2134 17.2755C73.1864 17.1225 73.1729 16.965 73.1729 16.803V11.313H73.9919V16.722C73.9919 16.956 74.0369 17.1315 74.1269 17.2485C74.2199 17.3655 74.3489 17.43 74.5139 17.442L74.7659 17.4465V17.9865C74.6969 18.0075 74.6249 18.024 74.5499 18.036C74.4749 18.051 74.4074 18.0585 74.3474 18.0585ZM77.5408 18.09C77.1118 18.09 76.7368 17.9985 76.4158 17.8155C76.0978 17.6295 75.8503 17.358 75.6733 17.001C75.4963 16.644 75.4078 16.2075 75.4078 15.6915C75.4078 15.2055 75.4903 14.7795 75.6553 14.4135C75.8203 14.0475 76.0618 13.764 76.3798 13.563C76.6978 13.359 77.0863 13.257 77.5453 13.257C77.9743 13.257 78.3463 13.3515 78.6613 13.5405C78.9763 13.7265 79.2208 14.001 79.3948 14.364C79.5718 14.727 79.6603 15.1695 79.6603 15.6915C79.6603 16.1655 79.5793 16.5825 79.4173 16.9425C79.2553 17.3025 79.0168 17.5845 78.7018 17.7885C78.3898 17.9895 78.0028 18.09 77.5408 18.09ZM77.5453 17.433C77.8213 17.433 78.0553 17.3625 78.2473 17.2215C78.4393 17.0805 78.5848 16.878 78.6838 16.614C78.7858 16.35 78.8368 16.0365 78.8368 15.6735C78.8368 15.3405 78.7918 15.042 78.7018 14.778C78.6148 14.511 78.4768 14.2995 78.2878 14.1435C78.0988 13.9875 77.8513 13.9095 77.5453 13.9095C77.2633 13.9095 77.0248 13.98 76.8298 14.121C76.6348 14.259 76.4863 14.46 76.3843 14.724C76.2853 14.988 76.2358 15.3045 76.2358 15.6735C76.2358 16.0005 76.2793 16.2975 76.3663 16.5645C76.4563 16.8315 76.5973 17.043 76.7893 17.199C76.9843 17.355 77.2363 17.433 77.5453 17.433ZM82.0189 18.09C81.7159 18.09 81.4489 18.0375 81.2179 17.9325C80.9899 17.8245 80.8099 17.67 80.6779 17.469C80.5489 17.268 80.4844 17.025 80.4844 16.74C80.4844 16.224 80.6644 15.84 81.0244 15.588C81.3844 15.336 81.9619 15.201 82.7569 15.183L83.5849 15.1605V14.796C83.5849 14.511 83.4994 14.286 83.3284 14.121C83.1574 13.953 82.8934 13.869 82.5364 13.869C82.2694 13.872 82.0339 13.935 81.8299 14.058C81.6259 14.181 81.4954 14.382 81.4384 14.661H80.7049C80.7229 14.358 80.8069 14.103 80.9569 13.896C81.1099 13.686 81.3244 13.527 81.6004 13.419C81.8764 13.311 82.2019 13.257 82.5769 13.257C82.9819 13.257 83.3179 13.314 83.5849 13.428C83.8549 13.542 84.0559 13.71 84.1879 13.932C84.3229 14.154 84.3904 14.427 84.3904 14.751V18H83.6794L83.6164 17.127C83.4394 17.49 83.2114 17.742 82.9324 17.883C82.6564 18.021 82.3519 18.09 82.0189 18.09ZM82.2664 17.4915C82.4254 17.4915 82.5814 17.463 82.7344 17.406C82.8904 17.349 83.0314 17.2725 83.1574 17.1765C83.2864 17.0775 83.3899 16.968 83.4679 16.848C83.5459 16.725 83.5849 16.599 83.5849 16.47V15.6735L82.8964 15.687C82.5394 15.693 82.2424 15.729 82.0054 15.795C81.7684 15.861 81.5899 15.9645 81.4699 16.1055C81.3499 16.2465 81.2899 16.431 81.2899 16.659C81.2899 16.92 81.3814 17.124 81.5644 17.271C81.7474 17.418 81.9814 17.4915 82.2664 17.4915ZM87.385 18.09C86.779 18.09 86.299 17.883 85.945 17.469C85.594 17.055 85.4185 16.4505 85.4185 15.6555C85.4185 15.1725 85.489 14.751 85.63 14.391C85.771 14.031 85.9825 13.752 86.2645 13.554C86.5465 13.356 86.8975 13.257 87.3175 13.257C87.5425 13.257 87.7405 13.2855 87.9115 13.3425C88.0825 13.3995 88.231 13.4715 88.357 13.5585C88.483 13.6455 88.585 13.7355 88.663 13.8285C88.744 13.9215 88.804 14.007 88.843 14.085V11.313H89.6845V18H89.0455L88.9555 17.046C88.9255 17.136 88.8775 17.241 88.8115 17.361C88.7455 17.478 88.6525 17.5935 88.5325 17.7075C88.4155 17.8185 88.2625 17.91 88.0735 17.982C87.8845 18.054 87.655 18.09 87.385 18.09ZM87.5335 17.451C88.0015 17.451 88.336 17.3085 88.537 17.0235C88.741 16.7355 88.843 16.266 88.843 15.615C88.84 15.252 88.795 14.943 88.708 14.688C88.621 14.433 88.483 14.2395 88.294 14.1075C88.108 13.9725 87.859 13.905 87.547 13.905C87.166 13.905 86.8555 14.0415 86.6155 14.3145C86.3755 14.5875 86.2555 15.021 86.2555 15.615C86.2555 16.197 86.3635 16.6485 86.5795 16.9695C86.7955 17.2905 87.1135 17.451 87.5335 17.451ZM94.9958 18.09C94.5668 18.09 94.1918 17.9985 93.8708 17.8155C93.5528 17.6295 93.3053 17.358 93.1283 17.001C92.9513 16.644 92.8628 16.2075 92.8628 15.6915C92.8628 15.2055 92.9453 14.7795 93.1103 14.4135C93.2753 14.0475 93.5168 13.764 93.8348 13.563C94.1528 13.359 94.5413 13.257 95.0003 13.257C95.4293 13.257 95.8013 13.3515 96.1163 13.5405C96.4313 13.7265 96.6758 14.001 96.8498 14.364C97.0268 14.727 97.1153 15.1695 97.1153 15.6915C97.1153 16.1655 97.0343 16.5825 96.8723 16.9425C96.7103 17.3025 96.4718 17.5845 96.1568 17.7885C95.8448 17.9895 95.4578 18.09 94.9958 18.09ZM95.0003 17.433C95.2763 17.433 95.5103 17.3625 95.7023 17.2215C95.8943 17.0805 96.0398 16.878 96.1388 16.614C96.2408 16.35 96.2918 16.0365 96.2918 15.6735C96.2918 15.3405 96.2468 15.042 96.1568 14.778C96.0698 14.511 95.9318 14.2995 95.7428 14.1435C95.5538 13.9875 95.3063 13.9095 95.0003 13.9095C94.7183 13.9095 94.4798 13.98 94.2848 14.121C94.0898 14.259 93.9413 14.46 93.8393 14.724C93.7403 14.988 93.6908 15.3045 93.6908 15.6735C93.6908 16.0005 93.7343 16.2975 93.8213 16.5645C93.9113 16.8315 94.0523 17.043 94.2443 17.199C94.4393 17.355 94.6913 17.433 95.0003 17.433ZM98.2217 18V13.347H99.0272V14.022C99.1022 13.893 99.2057 13.7715 99.3377 13.6575C99.4727 13.5435 99.6347 13.452 99.8237 13.383C100.016 13.314 100.236 13.2795 100.485 13.2795C100.779 13.2795 101.049 13.338 101.295 13.455C101.544 13.572 101.742 13.755 101.889 14.004C102.039 14.25 102.114 14.568 102.114 14.958V18H101.282V15.039C101.282 14.676 101.186 14.4075 100.994 14.2335C100.805 14.0565 100.559 13.968 100.256 13.968C100.046 13.968 99.8492 14.0025 99.6662 14.0715C99.4832 14.1375 99.3347 14.2395 99.2207 14.3775C99.1067 14.5125 99.0497 14.6835 99.0497 14.8905V18H98.2217ZM107.31 18.0225C106.989 18.0225 106.74 17.979 106.563 17.892C106.386 17.805 106.262 17.676 106.19 17.505C106.121 17.334 106.086 17.124 106.086 16.875V13.9545H105.33V13.347H106.109L106.311 11.9925H106.923V13.3425H107.972V13.9545H106.923V16.848C106.923 17.013 106.94 17.1345 106.973 17.2125C107.009 17.2875 107.067 17.3355 107.148 17.3565C107.229 17.3775 107.343 17.388 107.49 17.388H107.999V17.946C107.942 17.967 107.855 17.985 107.738 18C107.624 18.015 107.481 18.0225 107.31 18.0225ZM109.103 18V11.313H109.913V14.031C109.991 13.902 110.096 13.782 110.228 13.671C110.36 13.557 110.52 13.4655 110.709 13.3965C110.898 13.3245 111.117 13.2885 111.366 13.2885C111.669 13.2885 111.944 13.3455 112.19 13.4595C112.436 13.5705 112.631 13.7295 112.775 13.9365C112.919 14.1435 112.991 14.3895 112.991 14.6745V18H112.158V14.841C112.158 14.562 112.062 14.3475 111.87 14.1975C111.681 14.0445 111.434 13.968 111.128 13.968C110.921 13.968 110.726 14.0025 110.543 14.0715C110.36 14.1375 110.211 14.2395 110.097 14.3775C109.986 14.5125 109.931 14.685 109.931 14.895V18H109.103ZM116.255 18.09C115.823 18.09 115.442 17.9955 115.112 17.8065C114.782 17.6175 114.524 17.346 114.338 16.992C114.152 16.638 114.059 16.2135 114.059 15.7185C114.059 15.2295 114.143 14.8005 114.311 14.4315C114.479 14.0625 114.722 13.7745 115.04 13.5675C115.361 13.3605 115.746 13.257 116.196 13.257C116.634 13.257 117.005 13.3515 117.308 13.5405C117.611 13.7295 117.84 13.9965 117.996 14.3415C118.155 14.6835 118.235 15.09 118.235 15.561V15.867H114.9C114.9 16.161 114.948 16.428 115.044 16.668C115.143 16.905 115.292 17.094 115.49 17.235C115.688 17.376 115.938 17.4465 116.241 17.4465C116.538 17.4465 116.793 17.3775 117.006 17.2395C117.222 17.1015 117.36 16.902 117.42 16.641H118.203C118.149 16.956 118.023 17.2215 117.825 17.4375C117.63 17.6535 117.395 17.817 117.119 17.928C116.846 18.036 116.558 18.09 116.255 18.09ZM114.905 15.3045H117.434C117.434 15.0375 117.389 14.7975 117.299 14.5845C117.209 14.3685 117.071 14.199 116.885 14.076C116.702 13.95 116.471 13.887 116.192 13.887C115.901 13.887 115.659 13.9575 115.467 14.0985C115.275 14.2365 115.133 14.415 115.04 14.634C114.947 14.85 114.902 15.0735 114.905 15.3045Z" fill="#F9FAFB"/>
<path d="M55.615 37.18C54.451 37.18 53.44 36.913 52.582 36.379C51.724 35.845 51.064 35.083 50.602 34.093C50.14 33.097 49.909 31.909 49.909 30.529C49.909 29.137 50.149 27.937 50.629 26.929C51.109 25.921 51.784 25.15 52.654 24.616C53.53 24.076 54.556 23.806 55.732 23.806C56.452 23.806 57.115 23.926 57.721 24.166C58.333 24.406 58.867 24.73 59.323 25.138C59.785 25.546 60.148 26.011 60.412 26.533C60.676 27.055 60.823 27.598 60.853 28.162H58.54C58.456 27.718 58.285 27.31 58.027 26.938C57.775 26.56 57.448 26.257 57.046 26.029C56.65 25.801 56.197 25.687 55.687 25.687C55.033 25.687 54.448 25.852 53.932 26.182C53.422 26.512 53.02 27.031 52.726 27.739C52.438 28.441 52.294 29.353 52.294 30.475C52.294 31.363 52.384 32.113 52.564 32.725C52.75 33.331 53.002 33.82 53.32 34.192C53.644 34.558 54.016 34.825 54.436 34.993C54.856 35.155 55.3 35.236 55.768 35.236C56.224 35.236 56.626 35.158 56.974 35.002C57.322 34.846 57.616 34.642 57.856 34.39C58.102 34.138 58.291 33.868 58.423 33.58C58.561 33.286 58.642 33.001 58.666 32.725L58.747 31.771H55.84V30.223L61.033 30.241V37H59.485V35.173C59.263 35.503 58.981 35.821 58.639 36.127C58.303 36.433 57.889 36.685 57.397 36.883C56.911 37.081 56.317 37.18 55.615 37.18ZM67.1253 37.18C66.2373 37.18 65.4633 36.991 64.8033 36.613C64.1433 36.229 63.6303 35.68 63.2643 34.966C62.9043 34.252 62.7243 33.394 62.7243 32.392C62.7243 31.42 62.9013 30.568 63.2553 29.836C63.6093 29.104 64.1133 28.534 64.7673 28.126C65.4273 27.718 66.2163 27.514 67.1343 27.514C68.0223 27.514 68.7933 27.709 69.4473 28.099C70.1013 28.489 70.6053 29.047 70.9593 29.773C71.3193 30.499 71.4993 31.372 71.4993 32.392C71.4993 33.334 71.3283 34.165 70.9863 34.885C70.6503 35.599 70.1553 36.16 69.5013 36.568C68.8533 36.976 68.0613 37.18 67.1253 37.18ZM67.1343 35.515C67.6383 35.515 68.0523 35.377 68.3763 35.101C68.7063 34.825 68.9523 34.447 69.1143 33.967C69.2763 33.487 69.3573 32.941 69.3573 32.329C69.3573 31.759 69.2853 31.234 69.1413 30.754C68.9973 30.274 68.7603 29.89 68.4303 29.602C68.1063 29.308 67.6743 29.161 67.1343 29.161C66.6243 29.161 66.2013 29.296 65.8653 29.566C65.5353 29.83 65.2893 30.202 65.1273 30.682C64.9653 31.156 64.8843 31.705 64.8843 32.329C64.8843 32.893 64.9563 33.418 65.1003 33.904C65.2443 34.384 65.4813 34.774 65.8113 35.074C66.1413 35.368 66.5823 35.515 67.1343 35.515ZM76.9385 37.18C76.0505 37.18 75.2765 36.991 74.6165 36.613C73.9565 36.229 73.4435 35.68 73.0775 34.966C72.7175 34.252 72.5375 33.394 72.5375 32.392C72.5375 31.42 72.7145 30.568 73.0685 29.836C73.4225 29.104 73.9265 28.534 74.5805 28.126C75.2405 27.718 76.0295 27.514 76.9475 27.514C77.8355 27.514 78.6065 27.709 79.2605 28.099C79.9145 28.489 80.4185 29.047 80.7725 29.773C81.1325 30.499 81.3125 31.372 81.3125 32.392C81.3125 33.334 81.1415 34.165 80.7995 34.885C80.4635 35.599 79.9685 36.16 79.3145 36.568C78.6665 36.976 77.8745 37.18 76.9385 37.18ZM76.9475 35.515C77.4515 35.515 77.8655 35.377 78.1895 35.101C78.5195 34.825 78.7655 34.447 78.9275 33.967C79.0895 33.487 79.1705 32.941 79.1705 32.329C79.1705 31.759 79.0985 31.234 78.9545 30.754C78.8105 30.274 78.5735 29.89 78.2435 29.602C77.9195 29.308 77.4875 29.161 76.9475 29.161C76.4375 29.161 76.0145 29.296 75.6785 29.566C75.3485 29.83 75.1025 30.202 74.9405 30.682C74.7785 31.156 74.6975 31.705 74.6975 32.329C74.6975 32.893 74.7695 33.418 74.9135 33.904C75.0575 34.384 75.2945 34.774 75.6245 35.074C75.9545 35.368 76.3955 35.515 76.9475 35.515ZM86.8978 40.078C85.3318 40.078 84.1288 39.868 83.2888 39.448C82.4488 39.028 82.0288 38.452 82.0288 37.72C82.0288 37.39 82.1098 37.114 82.2718 36.892C82.4338 36.67 82.6258 36.487 82.8478 36.343C83.0698 36.199 83.2738 36.088 83.4598 36.01C83.6458 35.932 83.7658 35.875 83.8198 35.839C83.7178 35.779 83.5828 35.701 83.4148 35.605C83.2468 35.509 83.0938 35.377 82.9558 35.209C82.8238 35.041 82.7578 34.822 82.7578 34.552C82.7578 34.24 82.9048 33.952 83.1988 33.688C83.4988 33.424 83.9458 33.235 84.5398 33.121C83.9578 32.839 83.5108 32.458 83.1988 31.978C82.8868 31.498 82.7308 31 82.7308 30.484C82.7308 29.872 82.9078 29.347 83.2618 28.909C83.6218 28.471 84.1198 28.135 84.7558 27.901C85.3918 27.667 86.1328 27.55 86.9788 27.55C87.5968 27.55 88.1098 27.619 88.5178 27.757C88.9318 27.895 89.3158 28.081 89.6698 28.315C89.7898 28.267 89.9578 28.201 90.1738 28.117C90.3898 28.027 90.6268 27.931 90.8848 27.829C91.1428 27.721 91.3918 27.619 91.6318 27.523C91.8718 27.421 92.0728 27.337 92.2348 27.271L92.2258 29.08L90.6148 29.368C90.6928 29.542 90.7528 29.731 90.7948 29.935C90.8428 30.139 90.8668 30.319 90.8668 30.475C90.8668 31.015 90.7138 31.516 90.4078 31.978C90.1078 32.434 89.6548 32.8 89.0488 33.076C88.4488 33.352 87.6988 33.49 86.7988 33.49C86.7088 33.49 86.5858 33.487 86.4298 33.481C86.2738 33.475 86.1478 33.469 86.0518 33.463C85.5658 33.481 85.2328 33.538 85.0528 33.634C84.8728 33.73 84.7828 33.835 84.7828 33.949C84.7828 34.111 84.9178 34.219 85.1878 34.273C85.4578 34.327 85.8898 34.375 86.4838 34.417C86.6938 34.429 86.9698 34.444 87.3118 34.462C87.6538 34.48 88.0348 34.504 88.4548 34.534C89.5168 34.6 90.3208 34.867 90.8668 35.335C91.4128 35.797 91.6858 36.397 91.6858 37.135C91.6858 37.993 91.2898 38.698 90.4978 39.25C89.7058 39.802 88.5058 40.078 86.8978 40.078ZM87.2668 38.791C88.0528 38.791 88.6348 38.683 89.0128 38.467C89.3908 38.251 89.5798 37.933 89.5798 37.513C89.5798 37.189 89.4508 36.925 89.1928 36.721C88.9348 36.517 88.5508 36.397 88.0408 36.361L85.6918 36.217C85.4338 36.199 85.1878 36.247 84.9538 36.361C84.7258 36.469 84.5398 36.622 84.3958 36.82C84.2518 37.012 84.1798 37.225 84.1798 37.459C84.1798 37.897 84.4288 38.227 84.9268 38.449C85.4308 38.677 86.2108 38.791 87.2668 38.791ZM86.8708 32.203C87.4408 32.203 87.9028 32.059 88.2568 31.771C88.6108 31.477 88.7878 31.063 88.7878 30.529C88.7878 29.977 88.6108 29.548 88.2568 29.242C87.9028 28.93 87.4408 28.774 86.8708 28.774C86.2888 28.774 85.8178 28.93 85.4578 29.242C85.1038 29.554 84.9268 29.983 84.9268 30.529C84.9268 31.045 85.0978 31.453 85.4398 31.753C85.7818 32.053 86.2588 32.203 86.8708 32.203ZM96.2374 37.135C95.6374 37.135 95.1574 37.06 94.7974 36.91C94.4374 36.76 94.1674 36.559 93.9874 36.307C93.8074 36.055 93.6904 35.773 93.6364 35.461C93.5824 35.143 93.5554 34.819 93.5554 34.489V23.626H95.6974V34.237C95.6974 34.639 95.7784 34.951 95.9404 35.173C96.1084 35.395 96.3784 35.524 96.7504 35.56L97.2184 35.578V36.955C97.0564 37.003 96.8914 37.045 96.7234 37.081C96.5554 37.117 96.3934 37.135 96.2374 37.135ZM102.419 37.18C101.525 37.18 100.736 36.991 100.052 36.613C99.3741 36.229 98.8431 35.683 98.4591 34.975C98.0811 34.267 97.8921 33.424 97.8921 32.446C97.8921 31.492 98.0631 30.646 98.4051 29.908C98.7531 29.164 99.2541 28.579 99.9081 28.153C100.568 27.727 101.363 27.514 102.293 27.514C103.211 27.514 103.982 27.709 104.606 28.099C105.23 28.489 105.704 29.035 106.028 29.737C106.352 30.433 106.514 31.249 106.514 32.185V32.851H100.079C100.073 33.379 100.157 33.847 100.331 34.255C100.505 34.663 100.763 34.984 101.105 35.218C101.447 35.446 101.87 35.56 102.374 35.56C102.89 35.56 103.337 35.446 103.715 35.218C104.099 34.984 104.354 34.63 104.48 34.156H106.478C106.37 34.804 106.112 35.353 105.704 35.803C105.302 36.253 104.81 36.595 104.228 36.829C103.652 37.063 103.049 37.18 102.419 37.18ZM100.07 31.492H104.444C104.444 31.042 104.363 30.637 104.201 30.277C104.045 29.911 103.808 29.623 103.49 29.413C103.172 29.197 102.77 29.089 102.284 29.089C101.804 29.089 101.399 29.206 101.069 29.44C100.739 29.674 100.49 29.977 100.322 30.349C100.154 30.715 100.07 31.096 100.07 31.492ZM112.113 37V23.986H116.73C117.666 23.986 118.503 24.148 119.241 24.472C119.985 24.79 120.57 25.261 120.996 25.885C121.422 26.509 121.635 27.277 121.635 28.189C121.635 29.047 121.44 29.782 121.05 30.394C120.666 31.006 120.129 31.474 119.439 31.798C118.749 32.122 117.942 32.284 117.018 32.284H114.336V37H112.113ZM114.318 30.529H116.964C117.726 30.529 118.347 30.301 118.827 29.845C119.313 29.389 119.556 28.795 119.556 28.063C119.556 27.319 119.304 26.743 118.8 26.335C118.296 25.921 117.663 25.714 116.901 25.714H114.318V30.529ZM125.594 37.135C124.994 37.135 124.514 37.06 124.154 36.91C123.794 36.76 123.524 36.559 123.344 36.307C123.164 36.055 123.047 35.773 122.993 35.461C122.939 35.143 122.912 34.819 122.912 34.489V23.626H125.054V34.237C125.054 34.639 125.135 34.951 125.297 35.173C125.465 35.395 125.735 35.524 126.107 35.56L126.575 35.578V36.955C126.413 37.003 126.248 37.045 126.08 37.081C125.912 37.117 125.75 37.135 125.594 37.135ZM130.758 37.18C130.164 37.18 129.63 37.072 129.156 36.856C128.688 36.634 128.319 36.319 128.049 35.911C127.785 35.497 127.653 34.996 127.653 34.408C127.653 33.382 128.022 32.608 128.76 32.086C129.504 31.564 130.686 31.291 132.306 31.267L133.701 31.231V30.601C133.701 30.109 133.554 29.725 133.26 29.449C132.972 29.167 132.522 29.029 131.91 29.035C131.454 29.041 131.04 29.149 130.668 29.359C130.296 29.563 130.05 29.908 129.93 30.394H128.067C128.103 29.758 128.286 29.227 128.616 28.801C128.952 28.369 129.411 28.048 129.993 27.838C130.575 27.622 131.247 27.514 132.009 27.514C132.897 27.514 133.62 27.631 134.178 27.865C134.736 28.099 135.147 28.438 135.411 28.882C135.675 29.32 135.807 29.851 135.807 30.475V37H133.962L133.782 35.326C133.452 36.028 133.029 36.514 132.513 36.784C132.003 37.048 131.418 37.18 130.758 37.18ZM131.469 35.695C131.739 35.695 132.006 35.647 132.27 35.551C132.534 35.449 132.771 35.314 132.981 35.146C133.197 34.972 133.368 34.78 133.494 34.57C133.626 34.36 133.695 34.141 133.701 33.913V32.446L132.558 32.464C131.994 32.47 131.499 32.53 131.073 32.644C130.653 32.758 130.326 32.941 130.092 33.193C129.858 33.439 129.741 33.769 129.741 34.183C129.741 34.657 129.906 35.029 130.236 35.299C130.566 35.563 130.977 35.695 131.469 35.695ZM138.568 39.97C137.968 39.97 137.551 39.922 137.317 39.826C137.083 39.736 136.966 39.691 136.966 39.691V38.287L137.902 38.314C138.28 38.332 138.586 38.311 138.82 38.251C139.06 38.191 139.246 38.107 139.378 37.999C139.51 37.897 139.606 37.786 139.666 37.666C139.732 37.552 139.783 37.453 139.819 37.369L140.062 36.685L136.435 27.694H138.613L141.088 34.273L143.554 27.694H145.696L141.862 37.342C141.574 38.044 141.262 38.584 140.926 38.962C140.596 39.346 140.233 39.61 139.837 39.754C139.447 39.898 139.024 39.97 138.568 39.97Z" fill="#F9FAFB"/>
</svg>
