<svg width="419" height="259" viewBox="0 0 419 259" fill="none" xmlns="http://www.w3.org/2000/svg">
<path d="M1.98018 248.434C200.576 236.432 325.584 235.876 416.942 255.066C332.001 246.924 210.5 241 135.5 253C186.5 253 255 250 279 257" stroke="#3BA334" stroke-opacity="0.5" stroke-width="3" stroke-linecap="round" stroke-linejoin="round"/>
<path d="M201.488 128.028L182.648 130.719C182.516 128.689 182.528 125.428 183.242 120.984C184.512 113.077 188.294 100.049 199.1 82.8843C199.426 82.3664 199.613 81.7342 199.632 81.0776C199.652 80.421 199.504 79.7736 199.209 79.2273C198.915 78.681 198.489 78.2638 197.992 78.0349C197.495 77.806 196.953 77.7772 196.442 77.9525C196.095 78.0715 187.847 80.9632 179.563 89.1287C174.079 94.5341 167.863 103.056 164.766 115.572C164.929 114.31 165.115 113.052 165.323 111.8C167.731 97.332 174.713 73.5535 194.304 42.4368C194.63 41.9188 194.816 41.2866 194.835 40.6301C194.855 39.9736 194.707 39.3262 194.412 38.7799C194.118 38.2335 193.692 37.8161 193.195 37.5872C192.699 37.3583 192.156 37.3295 191.645 37.5049C176.645 42.6528 163.167 52.9741 152.669 67.3528C150.657 70.109 148.768 73.0008 147.012 76.015C143.883 56.425 141.029 41.0025 138.516 30.1062C137.053 23.759 135.687 18.8947 134.456 15.6479C133.685 13.613 131.878 8.84774 128.707 9.30067C125.769 9.72025 124.737 13.9746 124.115 18.0808C123.498 22.1491 123.074 28.1 122.853 35.7683C122.473 48.9723 122.676 67.3313 123.454 90.4197C117.518 82.8811 110.372 76.6276 102.163 71.8074C86.519 62.6212 72.5723 61.821 71.9865 61.7914C71.457 61.7649 70.9343 61.9459 70.4926 62.3088C70.0509 62.6717 69.7128 63.198 69.5262 63.8129C69.3397 64.4278 69.3144 65.0999 69.4537 65.7336C69.5931 66.3674 69.8901 66.9306 70.3025 67.3431C86.2561 83.294 96.074 97.6226 102.108 109.013C98.893 105.744 95.5808 103.325 92.5612 101.552C82.9964 95.9355 74.4339 95.4448 74.0742 95.4267C73.5446 95.4 73.0217 95.5809 72.5799 95.9438C72.1381 96.3067 71.7999 96.8331 71.6134 97.4481C71.4268 98.063 71.4014 98.7353 71.5409 99.3691C71.6803 100.003 71.9774 100.566 72.39 100.979C85.8013 114.388 91.8744 125.813 94.6072 133.037C96.2622 137.41 96.9186 140.798 97.1765 142.924L85.7427 144.557C84.3605 144.754 83.3688 146.303 83.5281 148.017C83.6873 149.731 84.9372 150.96 86.3193 150.763L202.065 134.234C203.447 134.037 204.438 132.487 204.279 130.774C204.12 129.06 202.87 127.831 201.488 128.028ZM127.805 39.4463C128.074 25.9039 128.847 19.8193 129.432 17.1109C130.398 19.3523 132.027 24.254 134.367 34.921C136.939 46.6418 139.862 62.9824 143.058 83.4972C139.217 91.5428 136.362 100.172 134.57 109.163C132.874 105.272 130.934 101.552 128.769 98.0371C127.847 73.465 127.522 53.7536 127.805 39.4463ZM102.184 142.209C101.439 135.755 97.96 121.519 82.4963 103.579C84.8879 104.394 87.6017 105.553 90.4036 107.198C101.886 113.941 109.152 125.249 112 140.808L102.184 142.209ZM117.46 140.028C117.163 136.066 116.134 129.129 112.77 119.938C106.66 103.241 95.7082 86.2895 80.1635 69.4477C85.4337 70.7182 92.6427 73.1031 100.169 77.5498C109.942 83.3231 117.921 91.0356 124.064 100.621C124.199 100.94 124.378 101.227 124.592 101.471C128.06 107.041 130.921 113.228 133.168 120.02C133.217 120.222 133.282 120.415 133.362 120.599C134.828 125.125 136.025 129.914 136.948 134.967C137.084 135.712 137.215 136.452 137.342 137.188L117.46 140.028ZM159.354 134.045L154.702 134.71C153.464 124.018 154.703 111.622 158.394 97.8372C158.833 96.2001 158.117 94.4322 156.797 93.8888C155.475 93.3453 154.05 94.2324 153.612 95.8692C149.692 110.508 148.378 123.804 149.695 135.425L142.371 136.47C142.207 135.508 142.038 134.547 141.862 133.587C140.915 128.4 139.682 123.448 138.172 118.742C142.038 86.6864 160.56 58.8229 185.426 46.6637C178.695 58.1494 173.168 69.4216 168.952 80.2735C164.762 91.0565 161.844 101.464 160.279 111.205C158.522 122.15 158.865 129.855 159.354 134.045ZM167.832 132.834C167.752 116.959 172.707 103.946 182.559 94.1566C185.022 91.7094 187.504 89.7729 189.729 88.2752C177.967 110.098 177.191 124.938 177.648 131.432L167.832 132.834Z" fill="url(#paint0_linear_29228_125)" fill-opacity="0.2"/>
<path d="M161.361 87.7857C161.932 86.2661 161.432 84.4476 160.217 83.6833C158.976 82.9028 157.459 83.5165 156.83 85.0551C156.746 85.2644 156.673 85.4799 156.611 85.7004C156.149 87.3276 156.84 89.1091 158.152 89.6813C158.512 89.8386 158.895 89.8923 159.274 89.8384C160.198 89.7065 161.027 88.9426 161.361 87.7857ZM78.4629 145.597L78.344 145.614C76.9619 145.811 75.9702 147.36 76.1294 149.074C76.2887 150.787 77.5386 152.017 78.9207 151.819L79.0396 151.802C80.4219 151.605 81.4134 150.056 81.2542 148.342C81.0949 146.628 79.845 145.399 78.4629 145.597Z" fill="url(#paint1_linear_29228_125)" fill-opacity="0.2"/>
<defs>
<linearGradient id="paint0_linear_29228_125" x1="128.075" y1="9.3909" x2="147.025" y2="142.094" gradientUnits="userSpaceOnUse">
<stop stop-color="#34A853"/>
<stop offset="1" stop-color="#34A853" stop-opacity="0"/>
</linearGradient>
<linearGradient id="paint1_linear_29228_125" x1="128.075" y1="9.3909" x2="147.025" y2="142.094" gradientUnits="userSpaceOnUse">
<stop stop-color="#34A853"/>
<stop offset="1" stop-color="#34A853" stop-opacity="0"/>
</linearGradient>
</defs>
</svg>
