<svg width="65" height="52" viewBox="0 0 65 52" fill="none" xmlns="http://www.w3.org/2000/svg">
<path d="M36.6667 52V33.393C36.6667 25.0863 38.9444 17.8317 43.5 11.6294C48.0556 5.31629 55.0556 1.43982 64.5 0V12.1278C59.0556 12.7923 55.4444 14.5644 53.6667 17.4441C51.8889 20.3237 51 24.1448 51 28.9073L41.1667 26.9137H64.1667V52H36.6667ZM0.5 52V33.393C0.5 25.0863 2.77778 17.8317 7.33333 11.6294C11.8889 5.31629 18.8889 1.43982 28.3333 0V12.1278C22.8889 12.7923 19.2778 14.5644 17.5 17.4441C15.7222 20.3237 14.8333 24.1448 14.8333 28.9073L5 26.9137H28V52H0.5Z" fill="#F7F7F7"/>
</svg>
